<svg width="10" height="10" viewBox="0 0 10 10" fill="none" xmlns="http://www.w3.org/2000/svg">
<path d="M5.88083 4.99709L9.81083 1.06709C10.055 0.82313 10.055 0.427297 9.81083 0.183339C9.56667 -0.060828 9.17125 -0.060828 8.92708 0.183339L4.99708 4.11334L1.06687 0.183339C0.822708 -0.060828 0.427292 -0.060828 0.183125 0.183339C-0.0610417 0.427297 -0.0610417 0.82313 0.183125 1.06709L4.11333 4.99709L0.183125 8.92709C-0.0610417 9.17105 -0.0610417 9.56688 0.183125 9.81084C0.305208 9.93271 0.465208 9.99376 0.625 9.99376C0.784792 9.99376 0.944792 9.93271 1.06687 9.81063L4.99708 5.88063L8.92708 9.81063C9.04917 9.93271 9.20917 9.99376 9.36896 9.99376C9.52875 9.99376 9.68875 9.93271 9.81083 9.81063C10.055 9.56667 10.055 9.17084 9.81083 8.92688L5.88083 4.99709Z" fill="white" fill-opacity="0.7"/>
</svg>
